<svg width="652" height="652" viewBox="0 0 652 652" fill="none" xmlns="http://www.w3.org/2000/svg">
<rect width="652" height="652" rx="50" fill="white"/>
<path d="M526 263.244C526 294.174 514.124 323.882 492.916 345.858C444.098 396.46 396.748 449.226 346.106 497.994C334.498 509.01 316.084 508.608 304.976 497.094L159.075 345.858C114.975 300.144 114.975 226.345 159.075 180.631C203.609 134.469 276.159 134.469 320.692 180.631L325.996 186.128L331.296 180.635C352.648 158.49 381.728 146 412.106 146C442.484 146 471.562 158.489 492.916 180.631C514.126 202.609 526 232.315 526 263.244Z" stroke="#FF2D2D" stroke-width="40" stroke-linejoin="round"/>
</svg>
